<svg width="36" height="36" viewBox="0 0 36 36" fill="none" xmlns="http://www.w3.org/2000/svg">
<g clip-path="url(#clip0_74_3087)">
<path d="M5.16382 12.5278H31.1023V13.2005H5.16382V12.5278Z" fill="#141414"/>
<path d="M5.16382 13.2005H31.1023V13.8731H5.16382V13.2005Z" fill="#3AF73E"/>
<path d="M5.16382 13.8731H31.1023V14.5457H5.16382V13.8731Z" fill="#141414"/>
<path d="M5.16382 14.5457H31.1023V15.2184H5.16382V14.5457Z" fill="#3AF73E"/>
<path d="M5.16382 15.2184H31.1023V15.891H5.16382V15.2184Z" fill="#141414"/>
<path d="M5.16382 15.891H31.1023V16.5636H5.16382V15.891Z" fill="#3AF73E"/>
<path d="M5.16382 16.5636H31.1023V17.2363H5.16382V16.5636Z" fill="#141414"/>
<path d="M5.16382 17.2363H31.1023V17.9089H5.16382V17.2363Z" fill="#3AF73E"/>
<path d="M5.16382 17.9089H31.1023V18.5815H5.16382V17.9089Z" fill="#141414"/>
<path d="M5.16382 18.5816H31.1023V19.2542H5.16382V18.5816Z" fill="#3AF73E"/>
<path d="M5.16382 19.2542H31.1023V19.9268H5.16382V19.2542ZM5.16382 20.5995H31.1023V21.2721H5.16382V20.5995Z" fill="#141414"/>
<path d="M5.16382 19.9268H31.1023V20.5995H5.16382V19.9268Z" fill="#3AF73E"/>
<path d="M5.57022 36H4.89758V0H31.1023V0.672635H5.57022V36Z" fill="#141414"/>
<path d="M6.24295 36H5.57031V0.672638H31.1024V1.34527H6.24295V36Z" fill="#3AF73E"/>
<path d="M6.91556 36H6.24292V1.34527H31.1024V2.0179H6.91556V36Z" fill="#141414"/>
<path d="M7.58816 36H6.91553V2.01791H31.1024V2.69054H7.58816V36Z" fill="#3AF73E"/>
<path d="M8.26077 36H7.58813V2.69054H31.1023V3.36318H8.26077V36Z" fill="#141414"/>
<path d="M8.93338 36H8.26074V3.36317H31.1023V4.03581H8.93338V36Z" fill="#3AF73E"/>
<path d="M9.60611 36H8.93347V4.03581H31.1024V4.70845H9.60611V36Z" fill="#141414"/>
<path d="M10.2787 36H9.60608V4.70845H31.1024V5.38109H10.2787V36Z" fill="#3AF73E"/>
<path d="M10.9513 36H10.2787V5.38108H31.1024V6.05372H10.9513V36Z" fill="#141414"/>
<path d="M11.6239 36H10.9513V6.05372H31.1023V6.72635H11.6239V36Z" fill="#3AF73E"/>
<path d="M12.2967 36H11.624V6.72635H31.1024V7.39898H12.2967V36Z" fill="#141414"/>
<path d="M13.6419 36H12.9692V8.07162H31.1024V8.74426H13.6419V36Z" fill="#141414"/>
<path d="M12.9693 36H12.2966V7.39899H31.1024V8.07162H12.9693V36Z" fill="#3AF73E"/>
</g>
<defs>
<clipPath id="clip0_74_3087">
<rect width="36" height="36" fill="white"/>
</clipPath>
</defs>
</svg>
